HIERARCHY
ROOT Hips
{
  OFFSET -300.059 95.9223 107.553
  CHANNELS 6 Xposition Yposition Zposition Zrotation Xrotation Yrotation
  JOINT ToSpine
  {
    OFFSET -0.0105055 1.38907 -7.13956
    CHANNELS 3 Zrotation Xrotation Yrotation
    JOINT Spine
    {
      OFFSET 0.0105055 10 1
      CHANNELS 3 Zrotation Xrotation Yrotation
      JOINT Spine1
      {
        OFFSET 0 12 1.60637
        CHANNELS 3 Zrotation Xrotation Yrotation
        JOINT Neck
        {
          OFFSET 0 27 2.26658
          CHANNELS 3 Zrotation Xrotation Yrotation
          JOINT Head
          {
            OFFSET 0 9 2.12705
            CHANNELS 3 Zrotation Xrotation Yrotation
            End Site
            {
              OFFSET 0 11 2
            }
          }
        }
        JOINT LeftShoulder
        {
          OFFSET 8 19.6109 2.86452
          CHANNELS 3 Zrotation Xrotation Yrotation
          JOINT LeftArm
          {
            OFFSET 12 1 0.681055
            CHANNELS 3 Zrotation Xrotation Yrotation
            JOINT LeftForeArm
            {
              OFFSET 19 0 -1.52608
              CHANNELS 3 Zrotation Xrotation Yrotation
              JOINT LeftHand
              {
                OFFSET 23 0 0
                CHANNELS 3 Zrotation Xrotation Yrotation
                End Site
                {
                  OFFSET 10 0 0
                }
              }
            }
          }
        }
        JOINT RightShoulder
        {
          OFFSET -8 19.6109 2.86452
          CHANNELS 3 Zrotation Xrotation Yrotation
          JOINT RightArm
          {
            OFFSET -12 1 0.681055
            CHANNELS 3 Zrotation Xrotation Yrotation
            JOINT RightForeArm
            {
              OFFSET -19 0 -1.52608
              CHANNELS 3 Zrotation Xrotation Yrotation
              JOINT RightHand
              {
                OFFSET -23 0 0
                CHANNELS 3 Zrotation Xrotation Yrotation
                End Site
                {
                  OFFSET -10 0 0
                }
              }
            }
          }
        }
      }
    }
  }
  JOINT LeftUpLeg
  {
    OFFSET 9 -7.17245 0
    CHANNELS 3 Zrotation Xrotation Yrotation
    JOINT LeftLeg
    {
      OFFSET 0 -44.1113 0
      CHANNELS 3 Zrotation Xrotation Yrotation
      JOINT LeftFoot
      {
        OFFSET 0 -36.1829 0
        CHANNELS 3 Zrotation Xrotation Yrotation
        JOINT LeftToeBase
        {
          OFFSET 0 -4.84184 13
          CHANNELS 3 Zrotation Xrotation Yrotation
          End Site
          {
            OFFSET 0 1 6
          }
        }
      }
    }
  }
  JOINT RightUpLeg
  {
    OFFSET -9 -7.17245 0
    CHANNELS 3 Zrotation Xrotation Yrotation
    JOINT RightLeg
    {
      OFFSET 0 -44.0551 0
      CHANNELS 3 Zrotation Xrotation Yrotation
      JOINT RightFoot
      {
        OFFSET 0 -36.1469 0
        CHANNELS 3 Zrotation Xrotation Yrotation
        JOINT RightToeBase
        {
          OFFSET 0 -4.92256 13
          CHANNELS 3 Zrotation Xrotation Yrotation
          End Site
          {
            OFFSET 0 1 6
          }
        }
      }
    }
  }
}
MOTION
Frames:	8
Frame Time:	0.0333333
-300.066 95.9323 107.578 2.71078 -0.0576242 79.6551 0 0 0 -5.74341 -2.5682 -0.719616 2.22288 12.9294 -1.46009 8.40213 -13.6726 -23.0953 -7.59062 6.67648 -18.1806 -25.0839 5.23106 -13.1179 -48.6722 25.0027 8.17131 -8.78534 -17.2986 -22.6079 6.6093 0.0402701 0.83397 23.3629 4.1162 10.3232 50.8579 17.172 1.76382 6.96114 -6.56429 15.6717 0.153176 0.0070213 5.28358 -0.408347 3.81024 7.59778 -1.30717 8.55365 -12.5537 4.44696 -2.97217 0.115369 -1.65308 -5.74342 2.39049 -5.02601 3.59834 -6.2674 0.703694 4.44623 22.4547 -9.6951 -0.823292 -0.0697004 1.24888 -7.56513 -6.53325 
-300.021 95.8421 107.514 2.91219 0.0281954 79.61 0 0 0 -5.84894 -2.47851 -0.613693 1.95897 12.9336 -1.3297 8.97068 -13.5019 -23.2086 -7.98109 6.2963 -18.1208 -24.8578 5.23695 -13.2463 -48.7524 24.7893 8.13664 -8.70725 -17.084 -22.5309 6.56099 0.0402705 0.795304 23.9475 4.38125 10.9352 50.5671 17.2578 0.953157 7.00054 -7.68553 16.228 0.51065 0.0236761 5.32518 -0.500678 3.67829 7.71118 -1.32394 9.38807 -12.6365 4.52159 -3.35549 0.132752 -1.64626 -5.74097 2.3743 -5.18797 3.82801 -6.20513 0.498717 4.48706 21.8376 -8.89743 -0.646784 -0.0505577 0.602276 -8.64426 -4.85502 
-299.944 95.8206 107.389 3.01336 -0.0338105 79.698 0 0 0 -5.95957 -2.44856 -0.725141 2.3534 13.0518 -1.58115 8.09994 -13.8417 -22.7786 -7.64763 6.89886 -17.8959 -25.3468 5.15553 -12.7452 -48.4435 24.8527 8.00967 -8.575 -16.9197 -22.687 6.4392 0.040271 0.74581 24.1202 4.85745 12.4024 50.3957 16.9018 -0.345563 6.7968 -8.60968 17.0033 0.734005 0.033612 5.22086 -0.443846 3.62121 7.82606 -1.40403 9.87933 -12.8338 4.59556 -3.56403 0.142998 -1.67913 -5.94539 2.39957 -5.1976 4.0123 -6.16701 0.447841 4.45011 21.6243 -9.07773 -0.688842 -0.0556099 0.528224 -8.50164 -4.53396 
-299.855 95.8956 107.208 3.1243 -0.0876216 79.7239 0 0 0 -5.84847 -2.77853 -0.687729 2.18295 13.5297 -1.45011 8.70105 -13.8979 -22.018 -7.97956 7.33094 -16.9365 -24.8608 5.15315 -12.9809 -48.549 24.3315 7.76129 -8.4306 -16.3744 -22.3333 6.44496 0.0424361 0.746065 24.017 4.60059 11.6007 50.4123 16.8653 0.599112 6.78344 -7.45046 16.3529 0.348367 0.0151867 5.02273 -0.529833 4.07287 7.77144 -1.50509 9.27454 -13.062 4.27087 -3.2219 0.120154 -1.88129 -5.92135 2.91925 -5.29937 4.15298 -6.33353 0.557533 4.42657 22.5909 -9.29966 -1.12053 -0.0901511 1.24521 -7.84118 -6.66141 
-299.723 95.8904 106.969 3.30745 0.028821 79.6069 0 0 0 -5.8834 -2.71972 -0.64998 2.30943 13.535 -1.44344 8.17885 -14.0089 -20.385 -7.53559 8.70771 -15.4756 -25.6042 5.28312 -13.0236 -48.01 24.816 7.92831 -8.61718 -16.8736 -22.5161 6.58826 0.0370582 0.644379 23.3204 4.24613 10.7835 50.7404 17.7098 1.28643 7.15958 -7.71723 16.0524 0.879343 0.0394362 5.09253 -0.883839 4.21802 7.59576 -1.4293 9.48307 -13.038 3.86499 -3.45202 0.116361 -1.933 -5.62787 3.12612 -5.72942 4.34807 -6.7078 0.703785 4.5003 22.6453 -9.69507 -1.02609 -0.0846033 0.831753 -8.09573 -5.3767 
-299.598 95.8626 106.749 3.41527 -0.0369409 79.5083 0 0 0 -5.94746 -2.16257 -0.824868 3.07084 12.8664 -1.82128 6.31119 -13.89 -17.4741 -5.72044 10.7416 -13.4318 -26.9744 5.24398 -12.2433 -47.4763 25.7527 8.32285 -8.8252 -17.6568 -23.0818 6.61407 0.0246265 0.42592 22.3659 4.25508 11.2414 51.2596 18.015 1.1898 7.82011 -9.18976 15.7428 -0.00591507 0.00116417 5.08672 -1.0386 4.52925 7.51586 -1.49579 9.36951 -12.3959 3.87261 -4.16245 0.141092 -1.77537 -5.2502 2.82523 -5.89195 4.50257 -6.93817 0.81945 4.55293 22.5233 -10.8779 -0.664005 -0.0641726 0.558506 -8.53184 -4.62218 
-299.473 95.8406 106.563 3.58814 -0.121376 79.1716 0 0 0 -5.45675 -2.29743 -0.576226 2.15175 13.0568 -1.29359 7.68631 -12.7894 -14.7167 -5.61467 10.895 -10.5908 -25.8311 5.18925 -12.6328 -48.0312 24.7833 8.02368 -8.67235 -16.9412 -22.4778 6.57004 0.0146073 0.256161 22.9697 4.14887 10.6158 50.9624 17.669 1.62875 7.59435 -7.75041 15.3052 -0.631387 -0.0273914 5.00402 -1.09487 4.84513 7.59154 -1.67438 9.38724 -11.8642 3.97728 -4.57129 0.158403 -1.73862 -5.45229 2.68102 -5.98911 4.6891 -6.95199 0.677579 4.58364 23.0883 -10.3639 -1.07484 -0.0963691 0.670639 -8.09057 -4.80816 
-299.294 95.8159 106.334 3.76933 -0.150846 78.7911 0 0 0 -4.7428 -2.44766 -0.207089 0.882745 13.5111 -0.584956 9.1859 -11.5071 -12.2839 -5.98118 9.67527 -7.94698 -24.6876 5.10708 -12.9163 -48.5115 24.3299 7.49647 -8.68579 -16.7903 -22.1858 6.74439 0.0328896 0.550784 24.3671 4.46135 11.0023 50.1113 17.1772 0.815322 6.87868 -6.56978 15.8386 0.111405 0.00501557 5.24447 -1.2311 4.82389 7.62555 -1.77278 10.1531 -11.5397 4.3035 -5.05751 0.191063 -1.68499 -5.36603 2.56554 -6.17993 4.88341 -6.95646 0.545151 4.61812 23.5664 -10.0403 -1.39486 -0.122956 0.747601 -7.46956 -4.79953 
